<?xml version="1.0" standalone="no"?>
<!DOCTYPE svg PUBLIC "-//W3C//DTD SVG 20010904//EN"
 "http://www.w3.org/TR/2001/REC-SVG-20010904/DTD/svg10.dtd">
<svg version="1.0" xmlns="http://www.w3.org/2000/svg"
 width="300.000000pt" height="188.000000pt" viewBox="0 0 300.000000 188.000000"
 preserveAspectRatio="xMidYMid meet">
<metadata>
Created by potrace 1.10, written by Peter Selinger 2001-2011
</metadata>
<g transform="translate(0.000000,188.000000) scale(0.100000,-0.100000)"
fill="#a52a2a" stroke="none">
<path d="M1415 1531 c-193 -52 -384 -169 -575 -350 l-65 -62 69 56 c87 72 161
119 252 162 113 52 189 66 329 60 176 -7 222 -22 677 -225 276 -124 451 -170
668 -177 l125 -5 -77 14 c-179 32 -298 91 -627 308 -154 102 -275 166 -388
204 -107 37 -284 43 -388 15z"/>
<path d="M1318 1314 c-50 -25 -68 -53 -22 -32 22 11 28 10 40 -7 16 -22 18
-45 4 -45 -12 0 -82 -61 -76 -67 2 -3 28 12 57 32 29 20 79 43 111 52 32 9 58
20 58 25 0 9 -32 4 -85 -13 -24 -8 -32 -6 -42 8 -20 26 -16 42 12 53 14 5 25
12 25 15 0 12 -38 2 -82 -21z"/>
<path d="M1634 1325 c10 -8 23 -16 28 -17 6 -2 4 -15 -3 -31 -10 -21 -17 -26
-33 -21 -50 16 -92 22 -99 15 -5 -5 14 -14 43 -20 62 -13 99 -32 145 -72 25
-22 35 -27 35 -16 0 9 -18 28 -40 44 -42 29 -47 42 -30 74 10 18 13 18 33 4
24 -17 37 -19 37 -6 0 11 -98 61 -119 61 -13 -1 -12 -3 3 -15z"/>
<path d="M1383 1160 c-28 -16 -54 -34 -58 -40 -10 -16 17 -12 37 7 17 15 19
15 32 -2 12 -17 16 -17 30 -6 10 8 14 21 11 32 -5 14 -1 19 12 19 10 0 25 5
33 10 12 7 8 10 -15 10 -16 0 -53 -14 -82 -30z"/>
<path d="M1530 1180 c8 -5 23 -10 33 -10 11 0 17 -8 17 -24 0 -32 18 -43 38
-23 14 15 18 14 44 -4 15 -11 28 -16 28 -11 0 15 -44 50 -82 67 -42 17 -103
21 -78 5z"/>
<path d="M1207 1080 c-21 -47 -24 -50 -51 -45 -38 7 -38 7 -27 39 7 17 7 26 1
26 -13 0 -28 -38 -36 -91 -4 -26 -3 -39 5 -39 6 0 11 12 11 26 0 22 3 25 23
20 12 -3 27 -6 33 -6 7 0 9 -19 6 -54 -2 -29 0 -56 6 -59 5 -4 11 19 14 57 3
38 16 87 31 120 14 31 21 56 16 56 -6 0 -20 -23 -32 -50z"/>
<path d="M1770 1125 c0 -3 10 -25 22 -48 14 -27 23 -68 26 -114 6 -87 22 -97
22 -14 0 52 2 59 23 65 33 9 34 8 41 -26 5 -24 9 -29 15 -19 5 8 8 19 6 25 -2
6 -9 32 -15 59 -7 26 -17 47 -22 47 -6 0 -7 -11 -4 -27 5 -17 3 -29 -6 -34
-30 -19 -48 -9 -69 41 -12 28 -25 50 -30 50 -5 0 -9 -2 -9 -5z"/>
<path d="M1500 1085 c0 -8 -9 -15 -20 -15 -11 0 -20 5 -20 10 0 14 -50 -12
-73 -38 -18 -20 -15 -47 8 -56 9 -3 12 0 8 10 -3 8 1 14 11 14 18 0 86 31 86
39 0 3 14 7 32 8 45 3 58 20 22 28 -16 4 -35 8 -41 11 -7 2 -13 -3 -13 -11z"/>
<path d="M1277 1047 c-21 -44 -32 -132 -18 -141 7 -5 11 5 11 29 0 23 5 35 13
34 27 -3 37 2 37 20 0 10 -7 22 -16 25 -9 4 -14 12 -10 21 3 8 9 22 12 30 12
30 -14 14 -29 -18z"/>
<path d="M1713 1053 c13 -24 13 -28 -6 -44 -18 -14 -19 -19 -8 -32 7 -9 19
-13 27 -10 10 4 14 -4 14 -32 0 -24 4 -34 11 -29 26 16 -12 174 -42 174 -5 0
-4 -12 4 -27z"/>
<path d="M1596 1038 c5 -8 0 -9 -15 -5 -13 3 -20 3 -17 0 3 -3 -3 -21 -15 -39
l-20 -33 21 -11 c15 -8 20 -21 20 -50 0 -22 4 -40 8 -40 12 0 42 34 42 48 0 7
5 12 10 12 6 0 10 7 10 15 0 8 5 15 11 15 14 0 4 46 -17 78 -14 22 -52 33 -38
10z"/>
<path d="M1426 961 c-3 -4 -3 -31 1 -59 l6 -50 34 31 33 31 -30 28 c-34 31
-36 32 -44 19z"/>
<path d="M193 888 c-2 -5 7 -8 21 -8 42 0 176 -47 266 -93 47 -24 173 -101
280 -171 222 -145 379 -227 494 -256 106 -27 246 -27 352 0 154 39 362 160
509 295 l60 55 -69 -50 c-135 -100 -294 -164 -434 -176 -160 -13 -322 31 -630
172 -283 130 -440 188 -585 215 -81 15 -258 26 -264 17z"/>
<path d="M1270 861 c-1 -41 99 -156 114 -132 3 5 -6 16 -20 26 -20 13 -23 19
-14 31 20 23 4 47 -25 40 -14 -4 -25 -3 -25 2 0 4 -7 17 -15 28 -10 13 -14 15
-15 5z"/>
<path d="M1722 845 c-10 -21 -17 -24 -37 -19 -28 7 -45 -17 -26 -40 8 -10 6
-17 -9 -31 -31 -28 -23 -39 11 -14 29 20 89 102 89 121 0 17 -17 7 -28 -17z"/>
<path d="M1190 840 c0 -5 10 -30 22 -54 18 -37 19 -47 8 -60 -17 -22 -37 -20
-52 4 -13 21 -28 27 -28 11 0 -18 84 -115 88 -102 2 6 -3 20 -12 30 -16 17
-15 19 9 35 25 17 27 16 67 -19 39 -33 58 -43 58 -29 0 3 -24 28 -54 55 -32
29 -62 67 -73 94 -17 41 -33 59 -33 35z"/>
<path d="M1796 815 c-21 -49 -61 -99 -101 -127 -19 -12 -35 -26 -35 -30 0 -17
22 -6 60 28 39 35 41 36 65 20 29 -19 31 -29 10 -46 -8 -7 -15 -18 -15 -24 1
-6 21 11 45 37 25 27 45 56 45 65 -1 13 -6 10 -23 -10 l-22 -27 -24 20 c-24
19 -24 21 -8 48 9 15 21 40 26 54 16 41 -6 33 -23 -8z"/>
<path d="M1547 824 c-4 -4 -4 -10 -2 -14 6 -10 45 0 45 11 0 10 -33 12 -43 3z"/>
<path d="M1455 800 c3 -5 15 -10 26 -10 11 0 17 5 14 10 -3 6 -15 10 -26 10
-11 0 -17 -4 -14 -10z"/>
<path d="M1483 729 c-5 -17 -11 -20 -34 -15 -16 3 -29 1 -29 -4 0 -24 149 -25
173 0 9 9 4 10 -24 5 -31 -6 -37 -4 -42 14 -7 27 -37 27 -44 0z"/>
<path d="M1380 642 c0 -11 47 -29 90 -34 20 -2 25 -8 25 -33 0 -25 -4 -30 -25
-32 -43 -2 -45 -3 -30 -13 8 -5 38 -10 65 -10 28 0 57 5 65 10 16 10 8 13 -27
10 -20 -1 -23 3 -23 34 0 31 3 36 24 36 30 0 86 20 86 30 0 5 -17 4 -37 -2
-39 -11 -166 -6 -195 6 -11 5 -18 4 -18 -2z"/>
</g>
</svg>
